<svg width="133" height="131" viewBox="0 0 133 131" fill="none" xmlns="http://www.w3.org/2000/svg">
<circle cx="60.7728" cy="60.7768" r="60.7768" fill="#F5F8FF"/>
<circle cx="60.7728" cy="60.7769" r="47.2709" fill="#E4ECFE"/>
<path d="M89.025 101.448H32.6511C31.1847 101.448 29.996 100.26 29.996 98.7931V22.6552C29.996 21.1888 31.1847 20 32.6511 20H76.6685L91.6802 33.8569V98.7931C91.6802 100.26 90.4914 101.448 89.025 101.448Z" fill="#F5F8FF" stroke="#B7CEFF" stroke-width="2"/>
<path fill-rule="evenodd" clip-rule="evenodd" d="M36.7811 37.0238C36.7811 36.0145 37.5993 35.1962 38.6087 35.1962H73.9954C75.0048 35.1962 75.823 36.0145 75.823 37.0238C75.823 38.0332 75.0048 38.8514 73.9954 38.8514H38.6087C37.5993 38.8514 36.7811 38.0332 36.7811 37.0238ZM36.7811 48.2887C36.7811 47.2794 37.5993 46.4611 38.6087 46.4611H84.269C85.2784 46.4611 86.0966 47.2794 86.0966 48.2887C86.0966 49.2981 85.2784 50.1163 84.269 50.1163H38.6087C37.5993 50.1163 36.7811 49.2981 36.7811 48.2887ZM36.7811 59.5536C36.7811 58.5443 37.5993 57.726 38.6087 57.726H51.1653C52.1746 57.726 52.9928 58.5443 52.9928 59.5536C52.9928 60.563 52.1746 61.3812 51.1653 61.3812H38.6087C37.5993 61.3812 36.7811 60.563 36.7811 59.5536ZM57.3282 59.5536C57.3282 58.5443 58.1465 57.726 59.1558 57.726H84.269C85.2784 57.726 86.0966 58.5443 86.0966 59.5536C86.0966 60.563 85.2784 61.3812 84.269 61.3812H59.1558C58.1465 61.3812 57.3282 60.563 57.3282 59.5536ZM36.7811 70.8185C36.7811 69.8092 37.5993 68.9909 38.6087 68.9909H71.7124C72.7218 68.9909 73.54 69.8092 73.54 70.8185C73.54 71.8279 72.7218 72.6461 71.7124 72.6461H38.6087C37.5993 72.6461 36.7811 71.8279 36.7811 70.8185ZM77.8754 70.8185C77.8754 69.8092 78.6936 68.9909 79.703 68.9909H84.269C85.2784 68.9909 86.0966 69.8092 86.0966 70.8185C86.0966 71.8279 85.2784 72.6461 84.269 72.6461H79.703C78.6936 72.6461 77.8754 71.8279 77.8754 70.8185ZM36.7811 80.9569C36.7811 79.9476 37.5993 79.1293 38.6087 79.1293H80.8445C81.8539 79.1293 82.6721 79.9476 82.6721 80.9569C82.6721 81.9663 81.8539 82.7845 80.8445 82.7845H38.6087C37.5993 82.7845 36.7811 81.9663 36.7811 80.9569ZM36.7811 91.0953C36.7811 90.086 37.5993 89.2677 38.6087 89.2677H69.4294C70.4388 89.2677 71.257 90.086 71.257 91.0953C71.257 92.1047 70.4388 92.9229 69.4294 92.9229H38.6087C37.5993 92.9229 36.7811 92.1047 36.7811 91.0953Z" fill="#B7CEFF"/>
<path d="M36.7811 37.0238C36.7811 36.0145 37.5993 35.1962 38.6087 35.1962H73.9954C75.0048 35.1962 75.823 36.0145 75.823 37.0238C75.823 38.0332 75.0048 38.8514 73.9954 38.8514H38.6087C37.5993 38.8514 36.7811 38.0332 36.7811 37.0238Z" fill="#2D56B2"/>
<path d="M77.0595 19L92.6802 33.4191H81.0595C78.8504 33.4191 77.0595 31.6282 77.0595 29.4191V19Z" fill="#B7CEFF"/>
<rect width="14.7292" height="2.53951" rx="1.26976" transform="matrix(-0.707107 0.707107 0.707107 0.707107 20.4111 21.0001)" fill="#2D56B2"/>
<rect width="14.7292" height="2.53951" rx="1.26976" transform="matrix(0.707107 0.707107 0.707107 -0.707107 9.99597 22.7957)" fill="#2D56B2"/>
<circle cx="26.3372" cy="56.3412" r="4.3412" stroke="#5388FE" stroke-width="4"/>
<circle cx="116.604" cy="69.6078" r="3.60776" stroke="#2D56B2" stroke-width="4"/>
<circle cx="10.1061" cy="77.1101" r="1.11008" stroke="#4F86FF" stroke-width="3"/>
<path d="M62.9106 123.958C84.7827 123.958 102.514 122.923 102.514 121.646C102.514 120.369 84.7827 119.334 62.9106 119.334C41.0385 119.334 23.3077 120.369 23.3077 121.646C23.3077 122.923 41.0385 123.958 62.9106 123.958Z" fill="#B7CEFF"/>
<path d="M83.7358 87.7785L89.6863 81.828L114.207 102.757C117.21 105.32 117.391 109.899 114.599 112.691C111.807 115.483 107.228 115.302 104.665 112.299L83.7358 87.7785Z" fill="#1A3166"/>
<path d="M87.9606 92.7285L104.665 112.299C107.228 115.303 111.807 115.483 114.599 112.691C117.391 109.899 117.21 105.32 114.207 102.757L92.3602 84.1102C91.481 87.2797 89.9679 90.1976 87.9606 92.7285Z" fill="#2D56B2"/>
<path d="M76.9412 52.0705L61.5606 87.7787C61.3237 87.5955 61.089 87.4057 60.8586 87.2138C59.372 85.9566 58.0774 84.4796 57.0177 82.8315L70.3029 51.9876C72.5039 51.6253 74.7495 51.6533 76.9412 52.0705Z" fill="white"/>
<path d="M87.8749 58.2655L73.414 91.8382C70.4103 91.8415 67.4461 91.1384 64.7507 89.7834L80.5409 53.1219C83.3383 54.2403 85.8474 56 87.8749 58.2655Z" fill="white"/>
<path fill-rule="evenodd" clip-rule="evenodd" d="M64.6228 57.0065C61.8226 58.829 59.6045 61.4658 58.2584 64.5909C56.912 67.7166 56.5013 71.184 57.0813 74.5524C57.6612 77.9205 59.2039 81.0292 61.5052 83.4882C63.8058 85.9464 66.7602 87.6445 69.991 88.3778C73.2213 89.111 76.5919 88.849 79.6794 87.6229L79.6797 87.6227C81.7306 86.8085 83.6086 85.5875 85.2049 84.0266C86.8012 82.4655 88.0844 80.595 88.9783 78.52C89.8721 76.4449 90.3582 74.208 90.4071 71.9373C90.4561 69.6666 90.0668 67.4095 89.263 65.2955L89.2629 65.2952C88.0525 62.1113 85.9495 59.3756 83.2294 57.4275C80.5101 55.48 77.2938 54.4049 73.9873 54.3302C70.6809 54.2556 67.4223 55.1844 64.6228 57.0065ZM53.0838 62.3619C54.8637 58.23 57.8065 54.7204 61.5494 52.2843C65.2931 49.8477 69.666 48.597 74.1144 48.6974C78.5628 48.7979 82.8765 50.2446 86.51 52.8469C90.1427 55.4485 92.9301 59.0862 94.5294 63.2932C95.5917 66.0869 96.1046 69.0652 96.0401 72.0587C95.9755 75.0523 95.3348 78.0051 94.1528 80.749C92.9708 83.493 91.2698 85.9762 89.1441 88.0549C87.0183 90.1337 84.5093 91.7673 81.759 92.8592C77.6162 94.5045 73.0859 94.8578 68.7439 93.8723C64.4023 92.8869 60.453 90.6094 57.3914 87.338C54.3305 84.0674 52.2935 79.9497 51.5287 75.5084C50.7641 71.0674 51.3042 66.4933 53.0838 62.3619Z" fill="#2D56B2"/>
<path d="M112.008 102.952L94.3412 88.4859C93.7936 88.0375 93.1556 88.6682 93.599 89.2196L107.865 106.963C108.415 107.648 109.21 108.092 110.038 108.179L110.528 108.23C112.219 108.407 113.492 107.07 113.243 105.378L113.185 104.985C113.07 104.209 112.644 103.474 112.008 102.952Z" fill="#9FBDFF"/>
<rect width="22.9185" height="3.95147" rx="1.97574" transform="matrix(-0.707107 0.707107 0.707107 0.707107 80.2018 62.0001)" fill="#2D56B2"/>
<rect width="22.9185" height="3.95147" rx="1.97574" transform="matrix(0.707107 0.707107 0.707107 -0.707107 63.996 64.7941)" fill="#2D56B2"/>
<rect width="12.8004" height="2.20696" rx="1.10348" transform="matrix(-0.707107 0.707107 0.707107 0.707107 111.047 37.0001)" fill="#5388FE"/>
<rect width="12.8004" height="2.20696" rx="1.10348" transform="matrix(0.707107 0.707107 0.707107 -0.707107 101.996 38.5606)" fill="#5388FE"/>
<rect width="10.8561" height="1.87174" rx="0.935869" transform="matrix(-0.707107 0.707107 0.707107 0.707107 44.6724 107)" fill="#2D56B2"/>
<rect width="10.8561" height="1.87174" rx="0.935869" transform="matrix(0.707107 0.707107 0.707107 -0.707107 36.996 108.324)" fill="#2D56B2"/>
</svg>
